<svg width="160" height="160" viewBox="0 0 160 160" fill="none" xmlns="http://www.w3.org/2000/svg">
  <circle cx="80" cy="80" r="72" stroke="currentColor" stroke-width="6"/>
  <circle cx="80" cy="80" r="54" stroke="currentColor" stroke-opacity="0.22" stroke-width="2"/>
  <path d="M50 48H85C100.464 48 111 57.2056 111 71C111 80.0533 106.178 87.4856 98.364 90.816C107.294 93.968 113 102.086 113 112C113 127.464 101.911 138 85 138H50V48ZM69 65V84H82C89.638 84 94 80.6284 94 74.5C94 68.3716 89.638 65 82 65H69ZM69 100V121H84C92.833 121 97 117.215 97 110.5C97 103.785 92.833 100 84 100H69Z" fill="currentColor"/>
  <path d="M87 60C93.191 56.065 100.609 54 109 54C117.391 54 124.809 56.065 131 60V75C125.465 69.896 118.677 67 110 67C97.8497 67 89.5 75.154 89.5 87.5C89.5 99.846 97.8497 108 110 108C118.677 108 125.465 105.104 131 100V115C124.809 118.935 117.391 121 109 121C87.3568 121 70.5 106.987 70.5 87.5C70.5 68.013 87.3568 54 109 54C100.609 54 93.191 56.065 87 60Z" fill="currentColor"/>
</svg>
